<svg width="1000" height="400" viewBox="0 0 1000 400" fill="none" xmlns="http://www.w3.org/2000/svg">
<mask id="mask0_248_2" style="mask-type:luminance" maskUnits="userSpaceOnUse" x="22" y="27" width="956" height="222">
<path d="M22.7812 27.7861H977.219V248.838H22.7812V27.7861Z" fill="white"/>
</mask>
<g mask="url(#mask0_248_2)">
<mask id="mask1_248_2" style="mask-type:luminance" maskUnits="userSpaceOnUse" x="22" y="27" width="956" height="222">
<path d="M37.7812 27.7861H962.219C970.505 27.7861 977.219 34.5049 977.219 42.7861V233.838C977.219 242.119 970.505 248.838 962.219 248.838H37.7812C29.4948 248.838 22.7812 242.119 22.7812 233.838V42.7861C22.7812 34.5049 29.4948 27.7861 37.7812 27.7861Z" fill="white"/>
</mask>
<g mask="url(#mask1_248_2)">
<path d="M22.7812 27.7861H977.219V248.838H22.7812V27.7861Z" fill="#442302"/>
</g>
</g>
<path d="M153.722 70.977C151.456 72.9926 148.935 74.003 145.909 74.003H79.2479C78.3677 74.003 77.7375 74.378 77.4875 75.1384C77.1073 75.8936 77.1073 76.5238 77.6125 77.1541L77.7375 77.2791C79.7531 79.5447 80.7635 82.1905 80.7635 85.0916V188.295C80.7635 191.321 79.7531 193.842 77.7375 196.107L77.6125 196.232C77.1073 196.993 77.1073 197.618 77.4875 198.248C77.7375 199.008 78.3677 199.258 79.2479 199.258H107.097C107.857 199.258 108.488 199.008 108.863 198.248C109.113 197.618 109.113 196.993 108.738 196.232C106.722 193.967 105.711 191.446 105.711 188.42V151.753C105.711 151.123 105.967 150.493 106.467 149.987C106.972 149.482 107.602 149.107 108.357 149.107H120.076C123.102 149.107 125.623 150.237 127.764 152.258H127.889C128.519 152.758 129.149 152.758 129.909 152.383C130.665 152.128 131.04 151.498 131.04 150.618V122.769C131.04 122.013 130.665 121.383 129.909 121.003C129.149 120.628 128.519 120.628 127.889 121.128C125.623 123.149 123.102 124.154 120.076 124.154H108.357C107.602 124.154 106.972 123.904 106.467 123.399C105.967 122.894 105.711 122.263 105.711 121.508V101.727C105.711 100.967 105.967 100.336 106.467 99.8363C106.972 99.3311 107.602 99.0759 108.357 99.0759H145.909C148.935 99.0759 151.456 100.086 153.722 102.102C154.352 102.607 154.982 102.607 155.738 102.227C156.498 101.977 156.873 101.347 156.873 100.467V72.6176C156.873 71.8624 156.498 71.2322 155.738 70.852C154.982 70.602 154.352 70.602 153.722 70.977Z" fill="#FFC1B2" fill-opacity="0.302"/>
<path d="M256.17 171.409L254.659 172.67C253.274 173.93 251.758 174.435 250.123 174.435H211.06C210.175 174.435 209.42 174.18 208.914 173.68C208.284 173.175 208.034 172.42 208.034 171.409V85.2165C208.034 82.3206 209.045 79.6748 211.06 77.404L211.185 77.279C211.56 76.6488 211.56 76.0186 211.31 75.2633C210.935 74.6331 210.305 74.2529 209.545 74.2529H181.696C180.815 74.2529 180.185 74.6331 179.935 75.2633C179.555 76.0186 179.555 76.6488 180.06 77.279C182.076 79.5446 183.086 82.1904 183.086 85.0915V196.487C183.086 197.368 183.336 198.123 183.967 198.628C184.472 199.258 185.227 199.508 186.107 199.508H250.123C251.758 199.508 253.274 200.138 254.659 201.274L256.17 202.534C256.8 203.039 257.43 203.039 258.185 202.659C258.815 202.409 259.196 201.779 259.196 200.899V173.05C259.196 172.289 258.815 171.659 258.185 171.284C257.43 171.029 256.8 171.029 256.17 171.409Z" fill="#FFC1B2" fill-opacity="0.302"/>
<path d="M362.147 93.6592C357.361 87.3571 351.689 82.5706 345.387 79.1696C338.96 75.8936 332.283 74.1279 325.226 74.1279C318.168 74.1279 311.366 75.8936 304.939 79.1696C298.512 82.5706 292.965 87.3571 288.179 93.6592C283.642 99.5811 280.241 106.263 277.97 113.571C275.575 120.878 274.444 128.69 274.444 136.758C274.444 144.821 275.575 152.633 277.97 159.94C280.241 167.378 283.642 173.93 288.179 179.727C292.965 186.029 298.512 190.94 304.939 194.216C311.366 197.618 318.168 199.258 325.226 199.258C332.283 199.258 338.96 197.618 345.387 194.216C351.689 190.94 357.361 186.029 362.147 179.727C366.684 173.93 370.085 167.378 372.481 159.94C374.746 152.633 376.007 144.821 376.007 136.758C376.007 128.69 374.746 120.878 372.481 113.571C370.085 106.263 366.684 99.5811 362.147 93.6592ZM325.226 174.31C321.7 174.31 318.293 173.3 315.272 171.284C312.121 169.269 309.345 166.623 307.08 163.216C304.684 159.815 302.793 155.784 301.408 151.248C300.022 146.711 299.392 141.925 299.392 136.758C299.392 131.716 300.022 126.8 301.408 122.263C302.793 117.727 304.684 113.821 307.08 110.295C309.345 106.894 312.121 104.118 315.272 102.102C318.293 100.086 321.7 99.0758 325.226 99.0758C328.752 99.0758 332.028 100.086 335.179 102.102C338.205 104.118 340.976 106.894 343.246 110.295C345.512 113.821 347.403 117.727 348.788 122.263C350.174 126.8 350.934 131.716 350.934 136.758C350.934 141.925 350.174 146.711 348.788 151.248C347.403 155.784 345.512 159.815 343.246 163.216C340.976 166.623 338.205 169.269 335.179 171.284C332.028 173.3 328.752 174.31 325.226 174.31Z" fill="#FFC1B2" fill-opacity="0.302"/>
<path d="M478.835 93.6592C474.049 87.3571 468.377 82.5706 462.075 79.1696C455.647 75.8936 448.97 74.1279 441.913 74.1279C434.856 74.1279 428.054 75.8936 421.627 79.1696C415.2 82.5706 409.653 87.3571 404.866 93.6592C400.33 99.5811 396.929 106.263 394.658 113.571C392.262 120.878 391.132 128.69 391.132 136.758C391.132 144.821 392.262 152.633 394.658 159.94C396.929 167.378 400.33 173.93 404.866 179.727C409.653 186.029 415.2 190.94 421.627 194.216C428.054 197.618 434.856 199.258 441.913 199.258C448.97 199.258 455.647 197.618 462.075 194.216C468.377 190.94 474.049 186.029 478.835 179.727C483.371 173.93 486.772 167.378 489.168 159.94C491.434 152.633 492.694 144.821 492.694 136.758C492.694 128.69 491.434 120.878 489.168 113.571C486.772 106.263 483.371 99.5811 478.835 93.6592ZM441.913 174.31C438.387 174.31 434.981 173.3 431.96 171.284C428.809 169.269 426.033 166.623 423.767 163.216C421.371 159.815 419.481 155.784 418.095 151.248C416.71 146.711 416.08 141.925 416.08 136.758C416.08 131.716 416.71 126.8 418.095 122.263C419.481 117.727 421.371 113.821 423.767 110.295C426.033 106.894 428.809 104.118 431.96 102.102C434.981 100.086 438.387 99.0758 441.913 99.0758C445.439 99.0758 448.715 100.086 451.866 102.102C454.892 104.118 457.663 106.894 459.934 110.295C462.2 113.821 464.09 117.727 465.476 122.263C466.861 126.8 467.621 131.716 467.621 136.758C467.621 141.925 466.861 146.711 465.476 151.248C464.09 155.784 462.2 159.815 459.934 163.216C457.663 166.623 454.892 169.269 451.866 171.284C448.715 173.3 445.439 174.31 441.913 174.31Z" fill="#FFC1B2" fill-opacity="0.302"/>
<path d="M603.335 196.107L601.444 194.597C599.428 192.956 597.663 190.94 596.277 188.675L580.652 163.722C580.147 162.966 579.897 162.086 580.147 161.076C580.402 160.196 580.902 159.44 581.788 158.81C584.939 156.539 587.71 154.019 589.975 151.123C593.382 146.961 596.027 142.175 597.788 136.883C599.553 131.591 600.564 126.045 600.564 120.248C600.564 114.451 599.553 108.779 597.788 103.487C596.027 98.1956 593.382 93.4092 589.975 89.1227C585.944 84.3363 581.033 80.555 575.486 77.9092C569.814 75.3883 563.642 74.0029 557.09 74.0029H517.267C516.387 74.0029 515.757 74.3779 515.507 75.1383C515.126 75.8936 515.251 76.5238 515.882 77.154C517.897 79.4196 519.033 82.0654 519.033 85.0915V188.42C519.033 191.321 518.022 193.841 516.132 195.982C515.376 196.737 515.251 197.368 515.632 198.123C515.882 198.878 516.512 199.258 517.522 199.258H545.746C546.501 199.258 547.132 199.008 547.387 198.248C547.637 197.493 547.637 196.862 547.132 196.107C544.991 193.841 543.981 191.321 543.981 188.295V169.899C543.981 168.888 544.236 168.008 544.991 167.253C545.746 166.493 546.632 166.118 547.637 166.118H550.663C551.923 166.118 553.053 166.748 553.814 167.883L569.314 192.831C569.939 193.966 569.814 194.972 569.059 195.982L568.934 196.107C568.428 196.862 568.428 197.493 568.809 198.248C569.059 199.008 569.689 199.258 570.569 199.258H602.455C603.335 199.258 603.84 198.878 604.09 198.123C604.345 197.368 604.09 196.737 603.335 196.107ZM570.699 135.243C567.548 139.274 563.012 141.164 557.09 141.164H547.637C546.632 141.164 545.746 140.914 544.991 140.159C544.236 139.404 543.981 138.519 543.981 137.513V102.732C543.981 101.727 544.236 100.841 544.991 100.086C545.746 99.3311 546.632 98.9508 547.637 98.9508H557.09C561.626 98.9508 565.027 99.9613 567.548 101.977C570.069 103.993 571.83 106.263 573.09 108.779C574.225 111.3 574.981 113.696 575.236 115.966C575.486 118.232 575.611 119.743 575.611 120.248C575.611 123.274 575.106 126.045 574.35 128.565C573.47 131.086 572.21 133.352 570.699 135.243Z" fill="#FFC1B2" fill-opacity="0.302"/>
<path d="M662.937 188.17V85.0915C662.937 82.0654 663.947 79.4196 665.963 77.154C666.338 76.5238 666.338 75.8936 666.088 75.1383C665.713 74.3779 665.083 74.0029 664.322 74.0029H636.474C635.593 74.0029 634.963 74.3779 634.713 75.1383C634.333 75.8936 634.333 76.5238 634.838 77.154C636.854 79.4196 637.989 82.0654 637.989 85.0915V188.17C637.989 191.196 636.854 193.841 634.838 196.107C634.333 196.862 634.333 197.493 634.713 198.248C634.963 199.008 635.593 199.258 636.474 199.258H664.322C665.083 199.258 665.713 199.008 666.088 198.248C666.338 197.493 666.338 196.862 665.963 196.107C664.953 195.102 664.197 193.841 663.692 192.456C663.192 191.065 662.937 189.68 662.937 188.17Z" fill="#FFC1B2" fill-opacity="0.302"/>
<path d="M799.031 196.107L798.906 195.982C796.89 193.966 796.005 191.446 796.005 188.42V84.8415C796.005 81.9404 796.89 79.4196 798.906 77.279L799.031 77.154C799.411 76.5238 799.411 75.8936 799.156 75.1383C798.781 74.3779 798.151 74.0029 797.395 74.0029H769.546C768.661 74.0029 768.031 74.3779 767.781 75.1383C767.401 75.8936 767.401 76.5238 767.906 77.154L768.031 77.279C769.921 79.4196 770.932 81.9404 770.932 84.8415V147.466C770.932 147.972 770.677 148.347 770.177 148.477C769.671 148.602 769.291 148.477 769.041 147.972L729.599 81.6904C728.588 80.1748 728.843 78.6644 730.104 77.154C730.479 76.5238 730.479 75.8936 730.229 75.1383C729.849 74.3779 729.218 74.0029 728.463 74.0029H725.062H698.724C697.843 74.0029 697.213 74.3779 696.963 75.1383C696.583 75.8936 696.583 76.5238 697.088 77.154C699.104 79.4196 700.114 81.9404 700.114 84.7113V188.545C700.114 191.446 699.104 193.966 697.088 196.107C696.583 196.862 696.583 197.493 696.963 198.248C697.213 199.008 697.843 199.258 698.724 199.258H726.572C727.333 199.258 727.963 199.008 728.338 198.248C728.588 197.493 728.588 196.862 728.213 196.107L727.963 195.857C725.942 193.841 725.062 191.321 725.062 188.295V125.795C725.062 125.289 725.187 125.039 725.692 124.909C726.197 124.784 726.572 124.909 726.953 125.289L766.52 191.696C767.276 193.336 767.151 194.847 766.015 196.107C765.51 196.862 765.51 197.493 765.89 198.248C766.14 199.008 766.77 199.258 767.656 199.258H797.395C798.151 199.258 798.781 199.008 799.156 198.248C799.411 197.493 799.411 196.862 799.031 196.107Z" fill="#FFC1B2" fill-opacity="0.302"/>
<path d="M901.859 136.128H886.864C883.963 136.128 881.442 135.243 879.427 133.227L878.921 132.722C878.166 132.347 877.536 132.347 876.781 132.597C876.026 132.977 875.77 133.607 875.77 134.362V162.336C875.77 163.092 876.026 163.722 876.781 164.102C877.536 164.477 878.166 164.477 878.921 163.977L880.307 162.586C881.317 161.581 882.578 161.076 884.088 161.076C884.213 161.076 884.343 161.201 884.343 161.456V171.284C884.343 172.164 883.963 172.92 883.458 173.425C882.958 174.055 882.197 174.31 881.317 174.31C874.515 174.31 868.843 173.05 864.432 170.399C860.02 167.883 856.494 164.607 853.973 160.701C851.453 156.92 849.562 152.758 848.552 148.477C847.546 144.19 847.041 140.159 847.041 136.628C847.041 131.592 847.796 126.8 849.312 122.263C850.822 117.727 853.088 113.696 855.864 110.17C861.911 102.857 870.479 99.0759 881.317 99.0759H893.916C896.692 99.0759 899.213 100.086 901.354 101.852C901.859 102.482 902.489 102.607 903.244 102.357C904 102.102 904.38 101.472 904.38 100.592V72.3623C904.38 71.6071 904 70.9769 903.369 70.6019C902.614 70.3467 901.984 70.3467 901.354 70.7269L900.848 71.2321C898.708 73.1176 896.187 74.003 893.416 74.003H881.317C872.119 74.003 863.802 75.7686 856.239 79.1696C848.682 82.6957 842.255 87.7373 836.708 94.2894C831.921 99.9613 828.265 106.388 825.744 113.696C823.223 121.003 822.093 128.565 822.093 136.628C822.093 144.44 823.354 152.128 825.869 159.565C828.39 167.123 832.046 173.805 837.088 179.602C842.13 185.524 848.302 190.31 855.609 193.842C862.921 197.493 871.489 199.258 881.317 199.258H901.859C903.875 199.258 905.64 198.628 907.151 197.118C908.536 195.732 909.291 193.967 909.291 191.826V143.56C909.291 141.545 908.536 139.904 907.151 138.394C905.64 136.883 903.875 136.128 901.859 136.128Z" fill="#FFC1B2" fill-opacity="0.302"/>
<path d="M157.056 72.392C154.791 74.4076 152.27 75.418 149.244 75.418H82.5824C81.7022 75.418 81.072 75.7931 80.822 76.5535C80.4418 77.3087 80.4418 77.9389 80.947 78.5691L81.072 78.6941C83.0876 80.9597 84.098 83.6056 84.098 86.5066V189.71C84.098 192.736 83.0876 195.257 81.072 197.522L80.947 197.647C80.4418 198.408 80.4418 199.033 80.822 199.663C81.072 200.423 81.7022 200.673 82.5824 200.673H110.431C111.192 200.673 111.822 200.423 112.197 199.663C112.447 199.033 112.447 198.408 112.072 197.647C110.056 195.382 109.046 192.861 109.046 189.835V153.168C109.046 152.538 109.301 151.908 109.801 151.402C110.306 150.897 110.937 150.522 111.692 150.522H123.411C126.437 150.522 128.957 151.652 131.098 153.673H131.223C131.853 154.173 132.483 154.173 133.244 153.798C133.999 153.543 134.374 152.913 134.374 152.033V124.184C134.374 123.428 133.999 122.798 133.244 122.418C132.483 122.043 131.853 122.043 131.223 122.543C128.957 124.564 126.437 125.569 123.411 125.569H111.692C110.937 125.569 110.306 125.319 109.801 124.814C109.301 124.309 109.046 123.678 109.046 122.923V103.142C109.046 102.382 109.301 101.751 109.801 101.251C110.306 100.746 110.937 100.491 111.692 100.491H149.244C152.27 100.491 154.791 101.501 157.056 103.517C157.687 104.022 158.317 104.022 159.072 103.642C159.832 103.392 160.207 102.762 160.207 101.882V74.0326C160.207 73.2774 159.832 72.6472 159.072 72.267C158.317 72.017 157.687 72.017 157.056 72.392Z" fill="#FFC1B2" fill-opacity="0.502"/>
<path d="M259.505 172.824L257.994 174.085C256.609 175.345 255.093 175.85 253.458 175.85H214.395C213.51 175.85 212.755 175.595 212.249 175.095C211.619 174.59 211.369 173.835 211.369 172.824V86.6315C211.369 83.7357 212.38 81.0898 214.395 78.819L214.52 78.694C214.895 78.0638 214.895 77.4336 214.645 76.6784C214.27 76.0482 213.64 75.668 212.88 75.668H185.031C184.15 75.668 183.52 76.0482 183.27 76.6784C182.89 77.4336 182.89 78.0638 183.395 78.694C185.411 80.9596 186.421 83.6055 186.421 86.5065V197.902C186.421 198.783 186.671 199.538 187.301 200.043C187.807 200.673 188.562 200.923 189.442 200.923H253.458C255.093 200.923 256.609 201.553 257.994 202.689L259.505 203.949C260.135 204.454 260.765 204.454 261.52 204.074C262.15 203.824 262.531 203.194 262.531 202.314V174.465C262.531 173.704 262.15 173.074 261.52 172.699C260.765 172.444 260.135 172.444 259.505 172.824Z" fill="#FFC1B2" fill-opacity="0.502"/>
<path d="M365.482 95.0742C360.696 88.7721 355.024 83.9857 348.722 80.5846C342.295 77.3086 335.618 75.543 328.561 75.543C321.503 75.543 314.701 77.3086 308.274 80.5846C301.847 83.9857 296.3 88.7721 291.514 95.0742C286.977 100.996 283.576 107.678 281.305 114.986C278.91 122.293 277.779 130.105 277.779 138.173C277.779 146.236 278.91 154.048 281.305 161.355C283.576 168.793 286.977 175.345 291.514 181.142C296.3 187.444 301.847 192.355 308.274 195.632C314.701 199.033 321.503 200.673 328.561 200.673C335.618 200.673 342.295 199.033 348.722 195.632C355.024 192.355 360.696 187.444 365.482 181.142C370.019 175.345 373.42 168.793 375.816 161.355C378.081 154.048 379.342 146.236 379.342 138.173C379.342 130.105 378.081 122.293 375.816 114.986C373.42 107.678 370.019 100.996 365.482 95.0742ZM328.561 175.725C325.035 175.725 321.628 174.715 318.607 172.699C315.456 170.684 312.68 168.038 310.415 164.632C308.019 161.23 306.128 157.199 304.743 152.663C303.357 148.126 302.727 143.34 302.727 138.173C302.727 133.132 303.357 128.215 304.743 123.678C306.128 119.142 308.019 115.236 310.415 111.71C312.68 108.309 315.456 105.533 318.607 103.517C321.628 101.501 325.035 100.491 328.561 100.491C332.087 100.491 335.363 101.501 338.514 103.517C341.54 105.533 344.311 108.309 346.581 111.71C348.847 115.236 350.738 119.142 352.123 123.678C353.508 128.215 354.269 133.132 354.269 138.173C354.269 143.34 353.508 148.126 352.123 152.663C350.738 157.199 348.847 161.23 346.581 164.632C344.311 168.038 341.54 170.684 338.514 172.699C335.363 174.715 332.087 175.725 328.561 175.725Z" fill="#FFC1B2" fill-opacity="0.502"/>
<path d="M482.17 95.0742C477.383 88.7721 471.712 83.9857 465.41 80.5846C458.982 77.3086 452.305 75.543 445.248 75.543C438.191 75.543 431.389 77.3086 424.962 80.5846C418.535 83.9857 412.988 88.7721 408.201 95.0742C403.665 100.996 400.264 107.678 397.993 114.986C395.597 122.293 394.467 130.105 394.467 138.173C394.467 146.236 395.597 154.048 397.993 161.355C400.264 168.793 403.665 175.345 408.201 181.142C412.988 187.444 418.535 192.355 424.962 195.632C431.389 199.033 438.191 200.673 445.248 200.673C452.305 200.673 458.982 199.033 465.41 195.632C471.712 192.355 477.383 187.444 482.17 181.142C486.706 175.345 490.107 168.793 492.503 161.355C494.769 154.048 496.029 146.236 496.029 138.173C496.029 130.105 494.769 122.293 492.503 114.986C490.107 107.678 486.706 100.996 482.17 95.0742ZM445.248 175.725C441.722 175.725 438.316 174.715 435.295 172.699C432.144 170.684 429.368 168.038 427.102 164.632C424.706 161.23 422.816 157.199 421.43 152.663C420.045 148.126 419.415 143.34 419.415 138.173C419.415 133.132 420.045 128.215 421.43 123.678C422.816 119.142 424.706 115.236 427.102 111.71C429.368 108.309 432.144 105.533 435.295 103.517C438.316 101.501 441.722 100.491 445.248 100.491C448.774 100.491 452.05 101.501 455.201 103.517C458.227 105.533 460.998 108.309 463.269 111.71C465.535 115.236 467.425 119.142 468.811 123.678C470.196 128.215 470.956 133.132 470.956 138.173C470.956 143.34 470.196 148.126 468.811 152.663C467.425 157.199 465.535 161.23 463.269 164.632C460.998 168.038 458.227 170.684 455.201 172.699C452.05 174.715 448.774 175.725 445.248 175.725Z" fill="#FFC1B2" fill-opacity="0.502"/>
<path d="M606.67 197.522L604.779 196.012C602.763 194.371 600.998 192.355 599.612 190.09L583.987 165.137C583.482 164.382 583.232 163.501 583.482 162.491C583.737 161.611 584.237 160.855 585.123 160.225C588.274 157.954 591.045 155.434 593.31 152.538C596.717 148.376 599.362 143.59 601.123 138.298C602.888 133.007 603.899 127.46 603.899 121.663C603.899 115.866 602.888 110.194 601.123 104.902C599.362 99.6107 596.717 94.8242 593.31 90.5378C589.279 85.7513 584.368 81.9701 578.821 79.3242C573.149 76.8034 566.977 75.418 560.425 75.418H520.602C519.722 75.418 519.092 75.793 518.842 76.5534C518.461 77.3086 518.586 77.9388 519.217 78.569C521.232 80.8346 522.368 83.4805 522.368 86.5065V189.835C522.368 192.736 521.357 195.257 519.467 197.397C518.711 198.152 518.586 198.783 518.967 199.538C519.217 200.293 519.847 200.673 520.857 200.673H549.081C549.836 200.673 550.467 200.423 550.722 199.663C550.972 198.908 550.972 198.277 550.467 197.522C548.326 195.257 547.316 192.736 547.316 189.71V171.314C547.316 170.303 547.571 169.423 548.326 168.668C549.081 167.908 549.967 167.533 550.972 167.533H553.998C555.258 167.533 556.388 168.163 557.149 169.298L572.649 194.246C573.274 195.382 573.149 196.387 572.394 197.397L572.269 197.522C571.763 198.277 571.763 198.908 572.144 199.663C572.394 200.423 573.024 200.673 573.904 200.673H605.789C606.67 200.673 607.175 200.293 607.425 199.538C607.68 198.783 607.425 198.152 606.67 197.522ZM574.034 136.658C570.883 140.689 566.347 142.579 560.425 142.579H550.972C549.967 142.579 549.081 142.329 548.326 141.574C547.571 140.819 547.316 139.934 547.316 138.928V104.147C547.316 103.142 547.571 102.257 548.326 101.501C549.081 100.746 549.967 100.366 550.972 100.366H560.425C564.961 100.366 568.362 101.376 570.883 103.392C573.404 105.408 575.164 107.678 576.425 110.194C577.56 112.715 578.316 115.111 578.571 117.382C578.821 119.647 578.946 121.158 578.946 121.663C578.946 124.689 578.441 127.46 577.685 129.98C576.805 132.501 575.545 134.767 574.034 136.658Z" fill="#FFC1B2" fill-opacity="0.502"/>
<path d="M666.272 189.585V86.5065C666.272 83.4805 667.282 80.8346 669.298 78.569C669.673 77.9388 669.673 77.3086 669.423 76.5534C669.048 75.793 668.418 75.418 667.657 75.418H639.808C638.928 75.418 638.298 75.793 638.048 76.5534C637.668 77.3086 637.668 77.9388 638.173 78.569C640.189 80.8346 641.324 83.4805 641.324 86.5065V189.585C641.324 192.611 640.189 195.257 638.173 197.522C637.668 198.277 637.668 198.908 638.048 199.663C638.298 200.423 638.928 200.673 639.808 200.673H667.657C668.418 200.673 669.048 200.423 669.423 199.663C669.673 198.908 669.673 198.277 669.298 197.522C668.288 196.517 667.532 195.257 667.027 193.871C666.527 192.48 666.272 191.095 666.272 189.585Z" fill="#FFC1B2" fill-opacity="0.502"/>
<path d="M802.366 197.522L802.241 197.397C800.225 195.382 799.34 192.861 799.34 189.835V86.2565C799.34 83.3555 800.225 80.8346 802.241 78.694L802.366 78.569C802.746 77.9388 802.746 77.3086 802.491 76.5534C802.116 75.793 801.486 75.418 800.73 75.418H772.881C771.996 75.418 771.366 75.793 771.116 76.5534C770.736 77.3086 770.736 77.9388 771.241 78.569L771.366 78.694C773.256 80.8346 774.267 83.3555 774.267 86.2565V148.882C774.267 149.387 774.012 149.762 773.512 149.892C773.006 150.017 772.626 149.892 772.376 149.387L732.933 83.1055C731.923 81.5898 732.178 80.0794 733.439 78.569C733.814 77.9388 733.814 77.3086 733.564 76.5534C733.183 75.793 732.553 75.418 731.798 75.418H728.397H702.058C701.178 75.418 700.548 75.793 700.298 76.5534C699.918 77.3086 699.918 77.9388 700.423 78.569C702.439 80.8346 703.449 83.3555 703.449 86.1263V189.96C703.449 192.861 702.439 195.382 700.423 197.522C699.918 198.277 699.918 198.908 700.298 199.663C700.548 200.423 701.178 200.673 702.058 200.673H729.907C730.668 200.673 731.298 200.423 731.673 199.663C731.923 198.908 731.923 198.277 731.548 197.522L731.298 197.272C729.277 195.257 728.397 192.736 728.397 189.71V127.21C728.397 126.704 728.522 126.454 729.027 126.324C729.532 126.199 729.907 126.324 730.288 126.704L769.855 193.111C770.611 194.751 770.486 196.262 769.35 197.522C768.845 198.277 768.845 198.908 769.225 199.663C769.475 200.423 770.105 200.673 770.991 200.673H800.73C801.486 200.673 802.116 200.423 802.491 199.663C802.746 198.908 802.746 198.277 802.366 197.522Z" fill="#FFC1B2" fill-opacity="0.502"/>
<path d="M905.194 137.543H890.199C887.298 137.543 884.777 136.658 882.762 134.642L882.256 134.137C881.501 133.762 880.871 133.762 880.116 134.012C879.361 134.392 879.105 135.022 879.105 135.777V163.751C879.105 164.507 879.361 165.137 880.116 165.517C880.871 165.892 881.501 165.892 882.256 165.392L883.642 164.001C884.652 162.996 885.913 162.491 887.423 162.491C887.548 162.491 887.678 162.616 887.678 162.871V172.699C887.678 173.579 887.298 174.335 886.793 174.84C886.293 175.47 885.532 175.725 884.652 175.725C877.85 175.725 872.178 174.465 867.767 171.814C863.355 169.298 859.829 166.022 857.308 162.116C854.788 158.335 852.897 154.173 851.887 149.892C850.881 145.606 850.376 141.574 850.376 138.043C850.376 133.007 851.131 128.215 852.647 123.678C854.157 119.142 856.423 115.111 859.199 111.585C865.246 104.272 873.814 100.491 884.652 100.491H897.251C900.027 100.491 902.548 101.501 904.689 103.267C905.194 103.897 905.824 104.022 906.579 103.772C907.334 103.517 907.715 102.887 907.715 102.007V73.7774C907.715 73.0222 907.334 72.392 906.704 72.017C905.949 71.7618 905.319 71.7618 904.689 72.142L904.183 72.6472C902.043 74.5326 899.522 75.418 896.751 75.418H884.652C875.454 75.418 867.137 77.1836 859.574 80.5847C852.017 84.1107 845.59 89.1524 840.043 95.7045C835.256 101.376 831.6 107.803 829.079 115.111C826.558 122.418 825.428 129.981 825.428 138.043C825.428 145.856 826.689 153.543 829.204 160.981C831.725 168.538 835.381 175.22 840.423 181.017C845.465 186.939 851.637 191.725 858.944 195.257C866.256 198.908 874.824 200.673 884.652 200.673H905.194C907.209 200.673 908.975 200.043 910.486 198.533C911.871 197.147 912.626 195.382 912.626 193.241V144.975C912.626 142.96 911.871 141.319 910.486 139.809C908.975 138.298 907.209 137.543 905.194 137.543Z" fill="#FFC1B2" fill-opacity="0.502"/>
<path d="M160.391 73.808C158.126 75.8236 155.605 76.8341 152.579 76.8341H85.9173C85.0371 76.8341 84.4069 77.2091 84.1569 77.9695C83.7767 78.7247 83.7767 79.3549 84.2819 79.9851L84.4069 80.1101C86.4226 82.3757 87.433 85.0216 87.433 87.9226V191.126C87.433 194.152 86.4226 196.673 84.4069 198.938L84.2819 199.063C83.7767 199.824 83.7767 200.449 84.1569 201.079C84.4069 201.839 85.0371 202.089 85.9173 202.089H113.766C114.527 202.089 115.157 201.839 115.532 201.079C115.782 200.449 115.782 199.824 115.407 199.063C113.391 196.798 112.381 194.277 112.381 191.251V154.584C112.381 153.954 112.636 153.324 113.136 152.818C113.641 152.313 114.272 151.938 115.027 151.938H126.745C129.772 151.938 132.292 153.068 134.433 155.089H134.558C135.188 155.589 135.818 155.589 136.579 155.214C137.334 154.959 137.709 154.329 137.709 153.449V125.6C137.709 124.844 137.334 124.214 136.579 123.834C135.818 123.459 135.188 123.459 134.558 123.959C132.292 125.98 129.772 126.985 126.745 126.985H115.027C114.272 126.985 113.641 126.735 113.136 126.23C112.636 125.725 112.381 125.094 112.381 124.339V104.558C112.381 103.798 112.636 103.167 113.136 102.667C113.641 102.162 114.272 101.907 115.027 101.907H152.579C155.605 101.907 158.126 102.917 160.391 104.933C161.022 105.438 161.652 105.438 162.407 105.058C163.167 104.808 163.542 104.178 163.542 103.298V75.4486C163.542 74.6934 163.167 74.0632 162.407 73.683C161.652 73.433 161.022 73.433 160.391 73.808Z" fill="#FFFAEF"/>
<path d="M262.839 174.24L261.329 175.501C259.943 176.761 258.428 177.266 256.792 177.266H217.73C216.844 177.266 216.089 177.011 215.584 176.511C214.954 176.006 214.704 175.251 214.704 174.24V88.0475C214.704 85.1517 215.714 82.5059 217.73 80.235L217.855 80.11C218.23 79.4798 218.23 78.8496 217.98 78.0944C217.605 77.4642 216.974 77.084 216.214 77.084H188.365C187.485 77.084 186.855 77.4642 186.605 78.0944C186.224 78.8496 186.224 79.4798 186.73 80.11C188.745 82.3757 189.756 85.0215 189.756 87.9225V199.318C189.756 200.199 190.006 200.954 190.636 201.459C191.141 202.089 191.896 202.339 192.777 202.339H256.792C258.428 202.339 259.943 202.969 261.329 204.105L262.839 205.365C263.469 205.87 264.099 205.87 264.855 205.49C265.485 205.24 265.865 204.61 265.865 203.73V175.881C265.865 175.12 265.485 174.49 264.855 174.115C264.099 173.86 263.469 173.86 262.839 174.24Z" fill="#FFFAEF"/>
<path d="M368.817 96.4902C364.031 90.1882 358.359 85.4017 352.057 82.0007C345.63 78.7246 338.953 76.959 331.896 76.959C324.838 76.959 318.036 78.7246 311.609 82.0007C305.182 85.4017 299.635 90.1882 294.849 96.4902C290.312 102.412 286.911 109.094 284.64 116.402C282.244 123.709 281.114 131.521 281.114 139.589C281.114 147.652 282.244 155.464 284.64 162.771C286.911 170.209 290.312 176.761 294.849 182.558C299.635 188.86 305.182 193.771 311.609 197.048C318.036 200.449 324.838 202.089 331.896 202.089C338.953 202.089 345.63 200.449 352.057 197.048C358.359 193.771 364.031 188.86 368.817 182.558C373.354 176.761 376.755 170.209 379.151 162.771C381.416 155.464 382.677 147.652 382.677 139.589C382.677 131.521 381.416 123.709 379.151 116.402C376.755 109.094 373.354 102.412 368.817 96.4902ZM331.896 177.141C328.369 177.141 324.963 176.131 321.942 174.115C318.791 172.1 316.015 169.454 313.75 166.048C311.354 162.646 309.463 158.615 308.078 154.079C306.692 149.542 306.062 144.756 306.062 139.589C306.062 134.548 306.692 129.631 308.078 125.094C309.463 120.558 311.354 116.652 313.75 113.126C316.015 109.725 318.791 106.949 321.942 104.933C324.963 102.917 328.369 101.907 331.896 101.907C335.422 101.907 338.698 102.917 341.849 104.933C344.875 106.949 347.646 109.725 349.916 113.126C352.182 116.652 354.073 120.558 355.458 125.094C356.843 129.631 357.604 134.548 357.604 139.589C357.604 144.756 356.843 149.542 355.458 154.079C354.073 158.615 352.182 162.646 349.916 166.048C347.646 169.454 344.875 172.1 341.849 174.115C338.698 176.131 335.422 177.141 331.896 177.141Z" fill="#FFFAEF"/>
<path d="M485.505 96.4902C480.718 90.1882 475.047 85.4017 468.744 82.0007C462.317 78.7246 455.64 76.959 448.583 76.959C441.526 76.959 434.724 78.7246 428.297 82.0007C421.869 85.4017 416.323 90.1882 411.536 96.4902C407 102.412 403.599 109.094 401.328 116.402C398.932 123.709 397.802 131.521 397.802 139.589C397.802 147.652 398.932 155.464 401.328 162.771C403.599 170.209 407 176.761 411.536 182.558C416.323 188.86 421.869 193.771 428.297 197.048C434.724 200.449 441.526 202.089 448.583 202.089C455.64 202.089 462.317 200.449 468.744 197.048C475.047 193.771 480.718 188.86 485.505 182.558C490.041 176.761 493.442 170.209 495.838 162.771C498.104 155.464 499.364 147.652 499.364 139.589C499.364 131.521 498.104 123.709 495.838 116.402C493.442 109.094 490.041 102.412 485.505 96.4902ZM448.583 177.141C445.057 177.141 441.651 176.131 438.63 174.115C435.479 172.1 432.703 169.454 430.437 166.048C428.041 162.646 426.151 158.615 424.765 154.079C423.38 149.542 422.75 144.756 422.75 139.589C422.75 134.548 423.38 129.631 424.765 125.094C426.151 120.558 428.041 116.652 430.437 113.126C432.703 109.725 435.479 106.949 438.63 104.933C441.651 102.917 445.057 101.907 448.583 101.907C452.109 101.907 455.385 102.917 458.536 104.933C461.562 106.949 464.333 109.725 466.604 113.126C468.869 116.652 470.76 120.558 472.146 125.094C473.531 129.631 474.291 134.548 474.291 139.589C474.291 144.756 473.531 149.542 472.146 154.079C470.76 158.615 468.869 162.646 466.604 166.048C464.333 169.454 461.562 172.1 458.536 174.115C455.385 176.131 452.109 177.141 448.583 177.141Z" fill="#FFFAEF"/>
<path d="M610.005 198.938L608.114 197.428C606.098 195.787 604.333 193.771 602.947 191.506L587.322 166.553C586.817 165.798 586.567 164.917 586.817 163.907C587.072 163.027 587.572 162.271 588.458 161.641C591.609 159.37 594.38 156.85 596.645 153.954C600.052 149.792 602.697 145.006 604.458 139.714C606.223 134.423 607.234 128.876 607.234 123.079C607.234 117.282 606.223 111.61 604.458 106.318C602.697 101.027 600.052 96.2402 596.645 91.9538C592.614 87.1673 587.703 83.3861 582.156 80.7402C576.484 78.2194 570.312 76.834 563.76 76.834H523.937C523.057 76.834 522.427 77.209 522.177 77.9694C521.796 78.7246 521.921 79.3548 522.552 79.985C524.567 82.2507 525.703 84.8965 525.703 87.9225V191.251C525.703 194.152 524.692 196.673 522.802 198.813C522.046 199.568 521.921 200.199 522.302 200.954C522.552 201.709 523.182 202.089 524.192 202.089H552.416C553.171 202.089 553.802 201.839 554.057 201.079C554.307 200.324 554.307 199.693 553.802 198.938C551.661 196.673 550.65 194.152 550.65 191.126V172.73C550.65 171.719 550.906 170.839 551.661 170.084C552.416 169.324 553.302 168.949 554.307 168.949H557.333C558.593 168.949 559.723 169.579 560.484 170.714L575.984 195.662C576.609 196.798 576.484 197.803 575.729 198.813L575.604 198.938C575.098 199.693 575.098 200.324 575.479 201.079C575.729 201.839 576.359 202.089 577.239 202.089H609.124C610.005 202.089 610.51 201.709 610.76 200.954C611.015 200.199 610.76 199.568 610.005 198.938ZM577.369 138.074C574.218 142.105 569.682 143.995 563.76 143.995H554.307C553.302 143.995 552.416 143.745 551.661 142.99C550.906 142.235 550.65 141.35 550.65 140.344V105.563C550.65 104.558 550.906 103.673 551.661 102.917C552.416 102.162 553.302 101.782 554.307 101.782H563.76C568.296 101.782 571.697 102.792 574.218 104.808C576.739 106.824 578.499 109.094 579.76 111.61C580.895 114.131 581.65 116.527 581.906 118.798C582.156 121.063 582.281 122.574 582.281 123.079C582.281 126.105 581.775 128.876 581.02 131.396C580.14 133.917 578.88 136.183 577.369 138.074Z" fill="#FFFAEF"/>
<path d="M669.606 191.001V87.9225C669.606 84.8965 670.617 82.2507 672.633 79.985C673.008 79.3548 673.008 78.7246 672.758 77.9694C672.383 77.209 671.752 76.834 670.992 76.834H643.143C642.263 76.834 641.633 77.209 641.383 77.9694C641.002 78.7246 641.002 79.3548 641.508 79.985C643.523 82.2507 644.659 84.8965 644.659 87.9225V191.001C644.659 194.027 643.523 196.673 641.508 198.938C641.002 199.693 641.002 200.324 641.383 201.079C641.633 201.839 642.263 202.089 643.143 202.089H670.992C671.752 202.089 672.383 201.839 672.758 201.079C673.008 200.324 673.008 199.693 672.633 198.938C671.622 197.933 670.867 196.673 670.362 195.287C669.862 193.896 669.606 192.511 669.606 191.001Z" fill="#FFFAEF"/>
<path d="M805.701 198.938L805.576 198.813C803.56 196.798 802.675 194.277 802.675 191.251V87.6725C802.675 84.7715 803.56 82.2507 805.576 80.11L805.701 79.985C806.081 79.3548 806.081 78.7246 805.826 77.9694C805.451 77.209 804.821 76.834 804.065 76.834H776.216C775.331 76.834 774.701 77.209 774.451 77.9694C774.071 78.7246 774.071 79.3548 774.576 79.985L774.701 80.11C776.591 82.2507 777.602 84.7715 777.602 87.6725V150.298C777.602 150.803 777.347 151.178 776.847 151.308C776.341 151.433 775.961 151.308 775.711 150.803L736.268 84.5215C735.258 83.0059 735.513 81.4954 736.774 79.985C737.149 79.3548 737.149 78.7246 736.899 77.9694C736.518 77.209 735.888 76.834 735.133 76.834H731.732H705.393C704.513 76.834 703.883 77.209 703.633 77.9694C703.253 78.7246 703.253 79.3548 703.758 79.985C705.774 82.2507 706.784 84.7715 706.784 87.5423V191.376C706.784 194.277 705.774 196.798 703.758 198.938C703.253 199.693 703.253 200.324 703.633 201.079C703.883 201.839 704.513 202.089 705.393 202.089H733.242C734.003 202.089 734.633 201.839 735.008 201.079C735.258 200.324 735.258 199.693 734.883 198.938L734.633 198.688C732.612 196.673 731.732 194.152 731.732 191.126V128.626C731.732 128.12 731.857 127.87 732.362 127.74C732.867 127.615 733.242 127.74 733.623 128.12L773.19 194.527C773.946 196.167 773.821 197.678 772.685 198.938C772.18 199.693 772.18 200.324 772.56 201.079C772.81 201.839 773.44 202.089 774.326 202.089H804.065C804.821 202.089 805.451 201.839 805.826 201.079C806.081 200.324 806.081 199.693 805.701 198.938Z" fill="#FFFAEF"/>
<path d="M908.529 138.959H893.534C890.633 138.959 888.112 138.074 886.097 136.058L885.591 135.553C884.836 135.178 884.206 135.178 883.451 135.428C882.695 135.808 882.44 136.438 882.44 137.193V165.167C882.44 165.923 882.695 166.553 883.451 166.933C884.206 167.308 884.836 167.308 885.591 166.808L886.977 165.417C887.987 164.412 889.248 163.907 890.758 163.907C890.883 163.907 891.013 164.032 891.013 164.287V174.115C891.013 174.995 890.633 175.751 890.128 176.256C889.628 176.886 888.867 177.141 887.987 177.141C881.185 177.141 875.513 175.881 871.102 173.23C866.69 170.714 863.164 167.438 860.643 163.532C858.123 159.751 856.232 155.589 855.222 151.308C854.216 147.022 853.711 142.99 853.711 139.459C853.711 134.423 854.466 129.631 855.982 125.094C857.492 120.558 859.758 116.527 862.534 113.001C868.581 105.688 877.149 101.907 887.987 101.907H900.586C903.362 101.907 905.883 102.917 908.024 104.683C908.529 105.313 909.159 105.438 909.914 105.188C910.669 104.933 911.05 104.303 911.05 103.423V75.1934C911.05 74.4382 910.669 73.808 910.039 73.433C909.284 73.1778 908.654 73.1778 908.024 73.558L907.518 74.0632C905.378 75.9486 902.857 76.834 900.086 76.834H887.987C878.789 76.834 870.472 78.5996 862.909 82.0007C855.352 85.5267 848.925 90.5684 843.378 97.1205C838.591 102.792 834.935 109.219 832.414 116.527C829.893 123.834 828.763 131.397 828.763 139.459C828.763 147.272 830.024 154.959 832.539 162.397C835.06 169.954 838.716 176.636 843.758 182.433C848.8 188.355 854.972 193.141 862.279 196.673C869.591 200.324 878.159 202.089 887.987 202.089H908.529C910.544 202.089 912.31 201.459 913.82 199.949C915.206 198.563 915.961 196.798 915.961 194.657V146.391C915.961 144.376 915.206 142.735 913.82 141.225C912.31 139.714 910.544 138.959 908.529 138.959Z" fill="#FFFAEF"/>
<mask id="mask2_248_2" style="mask-type:luminance" maskUnits="userSpaceOnUse" x="171" y="227" width="653" height="146">
<path d="M171.896 227.766H823.261V372.214H171.896V227.766Z" fill="white"/>
</mask>
<g mask="url(#mask2_248_2)">
<mask id="mask3_248_2" style="mask-type:luminance" maskUnits="userSpaceOnUse" x="171" y="227" width="653" height="146">
<path d="M186.896 227.766H808.261C816.542 227.766 823.261 234.484 823.261 242.766V357.214C823.261 365.495 816.542 372.214 808.261 372.214H186.896C178.61 372.214 171.896 365.495 171.896 357.214V242.766C171.896 234.484 178.61 227.766 186.896 227.766Z" fill="white"/>
</mask>
<g mask="url(#mask3_248_2)">
<path d="M171.896 227.766H823.261V372.214H171.896V227.766Z" fill="#87CE4B"/>
</g>
</g>
<path d="M313.56 298.842H303.165C301.154 298.842 299.409 298.233 298.014 296.832L297.659 296.483C297.139 296.223 296.701 296.223 296.175 296.4C295.654 296.66 295.477 297.098 295.477 297.619V317.014C295.477 317.54 295.654 317.978 296.175 318.238C296.701 318.499 297.139 318.499 297.659 318.15L298.623 317.191C299.321 316.494 300.196 316.139 301.243 316.139C301.331 316.139 301.42 316.228 301.42 316.405V323.217C301.42 323.832 301.154 324.353 300.805 324.702C300.456 325.139 299.935 325.316 299.321 325.316C294.602 325.316 290.675 324.441 287.612 322.608C284.555 320.858 282.112 318.587 280.362 315.879C278.618 313.259 277.305 310.374 276.607 307.405C275.909 304.436 275.56 301.639 275.56 299.191C275.56 295.697 276.081 292.379 277.133 289.233C278.18 286.087 279.753 283.29 281.675 280.848C285.868 275.78 291.81 273.16 299.321 273.16H308.06C309.982 273.16 311.727 273.858 313.211 275.082C313.56 275.52 313.998 275.603 314.524 275.431C315.05 275.254 315.31 274.816 315.31 274.207V254.639C315.31 254.113 315.05 253.676 314.612 253.415C314.086 253.238 313.649 253.238 313.211 253.504L312.862 253.853C311.378 255.16 309.633 255.775 307.706 255.775H299.321C292.946 255.775 287.18 256.999 281.935 259.353C276.696 261.801 272.237 265.296 268.394 269.837C265.076 273.77 262.54 278.228 260.795 283.29C259.045 288.358 258.258 293.603 258.258 299.191C258.258 304.608 259.133 309.941 260.883 315.092C262.628 320.337 265.165 324.967 268.659 328.983C272.149 333.092 276.43 336.41 281.498 338.858C286.566 341.389 292.508 342.613 299.321 342.613H313.56C314.961 342.613 316.185 342.176 317.232 341.129C318.191 340.165 318.717 338.941 318.717 337.457V303.999C318.717 302.603 318.191 301.462 317.232 300.415C316.185 299.369 314.961 298.842 313.56 298.842Z" fill="#FFC1B2" fill-opacity="0.302"/>
<path d="M408.786 341.041C408.786 340.692 408.614 340.432 408.348 340.255C406.343 338.593 405.03 336.499 404.332 333.88L383.452 261.713C383.015 260.317 383.275 259.005 384.327 257.958C384.588 257.52 384.588 257.083 384.411 256.562C384.15 256.036 383.713 255.775 383.192 255.775H360.124C359.603 255.775 359.166 256.036 358.9 256.562C358.64 257.083 358.64 257.52 358.989 257.958C360.036 259.005 360.301 260.317 359.864 261.713L339.072 333.963C338.369 336.411 336.973 338.51 334.963 340.255C334.702 340.515 334.525 340.781 334.525 341.041C334.442 341.479 334.525 341.827 334.791 342.176C335.051 342.525 335.4 342.614 335.926 342.614H356.192C356.718 342.614 357.155 342.437 357.327 341.916C357.504 341.39 357.504 340.952 357.155 340.515C356.108 339.468 355.843 338.161 356.192 336.76L358.9 327.676C359.166 326.713 359.687 325.926 360.473 325.406C361.171 324.88 362.046 324.531 363.098 324.531H380.306C381.265 324.531 382.14 324.88 382.926 325.406C383.624 325.926 384.15 326.713 384.499 327.676L387.119 336.76C387.468 338.161 387.119 339.38 386.249 340.432V340.515C385.9 341.041 385.9 341.479 386.161 341.916C386.332 342.437 386.77 342.614 387.385 342.614H407.478C407.916 342.614 408.265 342.525 408.525 342.176C408.786 341.827 408.874 341.479 408.786 341.041ZM377.338 307.234H366.067C365.718 307.234 365.452 307.145 365.28 306.88C365.02 306.619 364.931 306.27 365.103 305.921L370.786 286.437C370.869 285.999 371.135 285.739 371.655 285.739C372.181 285.739 372.442 285.999 372.619 286.437L378.207 305.921C378.296 306.27 378.207 306.619 378.036 306.88C377.858 307.145 377.598 307.234 377.338 307.234Z" fill="#FFC1B2" fill-opacity="0.302"/>
<path d="M482.52 253.588L482.431 253.676C480.859 255.077 479.114 255.775 477.103 255.775H432.197C430.103 255.775 428.353 255.077 426.78 253.676V253.588C426.26 253.327 425.822 253.327 425.296 253.588C424.77 253.854 424.598 254.202 424.598 254.723V274.119C424.598 274.734 424.77 275.171 425.296 275.343C425.822 275.604 426.26 275.604 426.78 275.255C428.353 273.859 430.103 273.072 432.197 273.072H444.254C444.692 273.072 445.129 273.244 445.478 273.598C445.827 273.947 445.999 274.385 445.999 274.817V334.926C445.999 337.02 445.301 338.859 443.905 340.343L443.817 340.432C443.468 340.952 443.468 341.39 443.728 341.916C443.905 342.437 444.343 342.614 444.952 342.614H464.348C464.874 342.614 465.223 342.437 465.484 341.916C465.744 341.39 465.744 340.952 465.484 340.432C463.999 338.859 463.301 337.109 463.301 335.015V274.817C463.301 274.385 463.473 273.947 463.822 273.598C464.171 273.244 464.525 273.072 465.046 273.072H477.103C479.202 273.072 480.947 273.859 482.431 275.255H482.52C482.958 275.604 483.395 275.604 483.916 275.343C484.442 275.171 484.702 274.734 484.702 274.119V254.723C484.702 254.202 484.442 253.854 483.916 253.588C483.395 253.327 482.958 253.327 482.52 253.588Z" fill="#FFC1B2" fill-opacity="0.302"/>
<path d="M561.233 269.4C557.915 265.035 553.983 261.713 549.613 259.353C545.16 257.082 540.529 255.858 535.634 255.858C530.743 255.858 526.024 257.082 521.571 259.353C517.113 261.713 513.269 265.035 509.951 269.4C506.806 273.509 504.446 278.14 502.873 283.207C501.212 288.275 500.425 293.692 500.425 299.28C500.425 304.874 501.212 310.291 502.873 315.358C504.446 320.509 506.806 325.051 509.951 329.072C513.269 333.442 517.113 336.848 521.571 339.119C526.024 341.478 530.743 342.614 535.634 342.614C540.529 342.614 545.16 341.478 549.613 339.119C553.983 336.848 557.915 333.442 561.233 329.072C564.378 325.051 566.738 320.509 568.399 315.358C569.967 310.291 570.842 304.874 570.842 299.28C570.842 293.692 569.967 288.275 568.399 283.207C566.738 278.14 564.378 273.509 561.233 269.4ZM535.634 325.317C533.191 325.317 530.832 324.619 528.733 323.218C526.55 321.822 524.628 319.989 523.056 317.629C521.394 315.27 520.087 312.473 519.123 309.327C518.165 306.181 517.727 302.864 517.727 299.28C517.727 295.785 518.165 292.379 519.123 289.233C520.087 286.088 521.394 283.379 523.056 280.937C524.628 278.577 526.55 276.655 528.733 275.254C530.832 273.858 533.191 273.16 535.634 273.16C538.082 273.16 540.352 273.858 542.535 275.254C544.634 276.655 546.556 278.577 548.128 280.937C549.701 283.379 551.014 286.088 551.972 289.233C552.936 292.379 553.457 295.785 553.457 299.28C553.457 302.864 552.936 306.181 551.972 309.327C551.014 312.473 549.701 315.27 548.128 317.629C546.556 319.989 544.634 321.822 542.535 323.218C540.352 324.619 538.082 325.317 535.634 325.317Z" fill="#FFC1B2" fill-opacity="0.302"/>
<path d="M647.546 340.432L646.234 339.38C644.838 338.244 643.614 336.848 642.656 335.275L631.822 317.979C631.473 317.452 631.296 316.843 631.473 316.14C631.645 315.531 631.994 315.005 632.609 314.572C634.791 312.999 636.713 311.249 638.286 309.239C640.645 306.359 642.478 303.036 643.702 299.369C644.926 295.697 645.624 291.854 645.624 287.838C645.624 283.817 644.926 279.885 643.702 276.218C642.478 272.546 640.645 269.229 638.286 266.26C635.489 262.937 632.083 260.317 628.239 258.484C624.307 256.734 620.025 255.775 615.484 255.775H587.874C587.265 255.775 586.827 256.036 586.656 256.562C586.39 257.083 586.478 257.52 586.916 257.958C588.312 259.531 589.098 261.364 589.098 263.463V335.098C589.098 337.109 588.4 338.859 587.093 340.343C586.567 340.869 586.478 341.301 586.739 341.827C586.916 342.354 587.353 342.614 588.051 342.614H607.619C608.145 342.614 608.583 342.437 608.755 341.916C608.932 341.39 608.932 340.952 608.583 340.432C607.098 338.859 606.4 337.109 606.4 335.015V322.26C606.4 321.557 606.572 320.947 607.098 320.421C607.619 319.9 608.234 319.635 608.932 319.635H611.031C611.9 319.635 612.687 320.072 613.213 320.859L623.958 338.161C624.395 338.942 624.307 339.645 623.786 340.343L623.697 340.432C623.348 340.952 623.348 341.39 623.609 341.916C623.786 342.437 624.218 342.614 624.833 342.614H646.937C647.546 342.614 647.895 342.354 648.072 341.827C648.244 341.301 648.072 340.869 647.546 340.432ZM624.921 298.234C622.734 301.031 619.588 302.338 615.484 302.338H608.932C608.234 302.338 607.619 302.166 607.098 301.64C606.572 301.114 606.4 300.505 606.4 299.807V275.692C606.4 274.994 606.572 274.385 607.098 273.859C607.619 273.333 608.234 273.072 608.932 273.072H615.484C618.63 273.072 620.989 273.77 622.734 275.171C624.484 276.567 625.708 278.14 626.577 279.885C627.364 281.635 627.89 283.291 628.062 284.864C628.239 286.437 628.327 287.489 628.327 287.838C628.327 289.932 627.978 291.854 627.452 293.604C626.843 295.348 625.968 296.921 624.921 298.234Z" fill="#FFC1B2" fill-opacity="0.302"/>
<path d="M730.452 277.265L730.015 276.739C728.791 275.52 728.01 274.119 727.483 272.546C725.911 267.656 722.676 263.635 717.963 260.489C715.338 258.833 712.369 257.52 709.051 256.645C705.728 255.775 702.322 255.338 698.65 255.338C694.983 255.338 691.4 255.859 687.994 256.734C684.588 257.609 681.53 258.921 678.822 260.577C675.15 262.848 672.442 265.557 670.52 268.791C668.598 272.025 667.723 275.52 667.723 279.364C667.723 286.702 671.135 292.989 678.124 298.145C680.567 300.067 683.187 301.64 686.072 303.036C688.957 304.437 691.926 305.833 694.895 307.057C696.645 307.932 698.567 308.801 700.489 309.676C702.411 310.551 704.155 311.51 705.728 312.385C707.301 313.348 708.614 314.307 709.661 315.27C710.707 316.317 711.233 317.281 711.233 318.239C711.233 319.463 710.796 320.598 709.921 321.473C709.051 322.343 707.916 323.13 706.603 323.656C705.291 324.182 703.895 324.619 702.322 324.88C700.749 325.229 699.353 325.317 697.952 325.317C696.207 325.317 694.457 325.14 692.536 324.702C690.614 324.354 688.957 323.656 687.645 322.697C687.296 322.432 687.036 322.083 687.036 321.645C686.947 321.208 687.036 320.859 687.385 320.51L687.468 320.421C687.733 319.989 687.733 319.551 687.556 319.025C687.296 318.499 686.858 318.239 686.332 318.239H667.025C666.416 318.239 665.978 318.499 665.801 319.025C665.541 319.551 665.541 319.989 665.89 320.421L666.239 320.775C667.463 322.171 668.249 323.656 668.775 325.14C670.348 330.208 673.494 334.229 678.385 337.286C681.004 339.031 684.062 340.343 687.385 341.218C690.702 342.176 694.286 342.614 697.952 342.614C702.322 342.614 706.426 342.005 710.187 340.781C713.942 339.557 717.176 337.895 719.885 335.713C722.593 333.614 724.687 330.994 726.26 328.025C727.744 325.051 728.53 321.822 728.53 318.239C728.53 314.484 727.655 311.161 725.999 308.369C724.338 305.572 722.239 303.124 719.619 301.031C716.999 298.932 714.202 297.187 711.056 295.614C707.916 294.041 704.853 292.64 701.885 291.244C699.874 290.369 697.869 289.494 695.858 288.536C693.848 287.661 692.015 286.702 690.442 285.65C688.869 284.692 687.556 283.645 686.51 282.593C685.463 281.546 685.025 280.499 685.025 279.364C685.025 278.4 685.374 277.525 686.249 276.656C687.036 275.781 688.082 275.083 689.39 274.468C690.614 273.947 692.098 273.51 693.76 273.161C695.332 272.812 696.994 272.635 698.65 272.635C700.572 272.635 702.499 272.895 704.244 273.244C705.989 273.682 707.39 274.296 708.614 275.083C708.963 275.343 709.223 275.692 709.223 276.13C709.223 276.567 709.135 276.916 708.874 277.176V277.265C708.525 277.791 708.525 278.229 708.786 278.661C708.963 279.187 709.4 279.364 710.01 279.364H729.317C729.843 279.364 730.28 279.187 730.541 278.661C730.718 278.229 730.718 277.791 730.452 277.265Z" fill="#FFC1B2" fill-opacity="0.302"/>
<path d="M315.872 299.824H305.477C303.466 299.824 301.721 299.215 300.326 297.814L299.971 297.465C299.451 297.204 299.013 297.204 298.487 297.381C297.966 297.642 297.789 298.079 297.789 298.6V317.996C297.789 318.522 297.966 318.959 298.487 319.22C299.013 319.48 299.451 319.48 299.971 319.131L300.935 318.173C301.633 317.475 302.508 317.121 303.555 317.121C303.643 317.121 303.732 317.209 303.732 317.386V324.199C303.732 324.814 303.466 325.334 303.117 325.683C302.768 326.121 302.247 326.298 301.633 326.298C296.914 326.298 292.987 325.423 289.924 323.59C286.867 321.84 284.424 319.569 282.674 316.86C280.93 314.241 279.617 311.355 278.919 308.386C278.221 305.418 277.872 302.621 277.872 300.173C277.872 296.678 278.393 293.36 279.445 290.215C280.492 287.069 282.065 284.272 283.987 281.829C288.18 276.761 294.122 274.142 301.633 274.142H310.372C312.294 274.142 314.039 274.84 315.523 276.064C315.872 276.501 316.31 276.584 316.836 276.412C317.362 276.235 317.622 275.798 317.622 275.189V255.621C317.622 255.095 317.362 254.657 316.924 254.397C316.398 254.22 315.961 254.22 315.523 254.485L315.174 254.834C313.69 256.142 311.945 256.756 310.018 256.756H301.633C295.258 256.756 289.492 257.98 284.247 260.334C279.008 262.782 274.549 266.277 270.706 270.819C267.388 274.751 264.852 279.209 263.107 284.272C261.357 289.34 260.57 294.584 260.57 300.173C260.57 305.59 261.445 310.923 263.195 316.074C264.94 321.319 267.477 325.949 270.971 329.965C274.461 334.074 278.742 337.392 283.81 339.84C288.878 342.371 294.82 343.595 301.633 343.595H315.872C317.273 343.595 318.497 343.157 319.544 342.11C320.503 341.147 321.029 339.923 321.029 338.439V304.98C321.029 303.584 320.503 302.444 319.544 301.397C318.497 300.35 317.273 299.824 315.872 299.824Z" fill="#FFC1B2" fill-opacity="0.502"/>
<path d="M411.098 342.022C411.098 341.674 410.926 341.413 410.66 341.236C408.655 339.575 407.342 337.481 406.644 334.861L385.764 262.694C385.327 261.299 385.587 259.986 386.639 258.939C386.9 258.502 386.9 258.064 386.723 257.543C386.462 257.017 386.025 256.757 385.504 256.757H362.436C361.915 256.757 361.478 257.017 361.212 257.543C360.952 258.064 360.952 258.502 361.301 258.939C362.348 259.986 362.613 261.299 362.176 262.694L341.384 334.944C340.681 337.392 339.285 339.491 337.275 341.236C337.014 341.496 336.837 341.762 336.837 342.022C336.754 342.46 336.837 342.809 337.103 343.158C337.363 343.507 337.712 343.595 338.238 343.595H358.504C359.03 343.595 359.467 343.418 359.639 342.897C359.816 342.371 359.816 341.934 359.467 341.496C358.42 340.45 358.155 339.142 358.504 337.741L361.212 328.658C361.478 327.694 361.999 326.908 362.785 326.387C363.483 325.861 364.358 325.512 365.41 325.512H382.618C383.577 325.512 384.452 325.861 385.238 326.387C385.936 326.908 386.462 327.694 386.811 328.658L389.431 337.741C389.78 339.142 389.431 340.361 388.561 341.413V341.496C388.212 342.022 388.212 342.46 388.473 342.897C388.644 343.418 389.082 343.595 389.697 343.595H409.79C410.228 343.595 410.577 343.507 410.837 343.158C411.098 342.809 411.186 342.46 411.098 342.022ZM379.65 308.215H368.379C368.03 308.215 367.764 308.127 367.592 307.861C367.332 307.601 367.243 307.252 367.415 306.903L373.098 287.418C373.181 286.981 373.447 286.72 373.967 286.72C374.493 286.72 374.754 286.981 374.931 287.418L380.519 306.903C380.608 307.252 380.519 307.601 380.348 307.861C380.17 308.127 379.91 308.215 379.65 308.215Z" fill="#FFC1B2" fill-opacity="0.502"/>
<path d="M484.833 254.569L484.744 254.658C483.171 256.059 481.426 256.757 479.416 256.757H434.51C432.416 256.757 430.666 256.059 429.093 254.658V254.569C428.572 254.309 428.135 254.309 427.609 254.569C427.083 254.835 426.911 255.184 426.911 255.705V275.101C426.911 275.715 427.083 276.153 427.609 276.325C428.135 276.585 428.572 276.585 429.093 276.236C430.666 274.84 432.416 274.054 434.51 274.054H446.567C447.004 274.054 447.442 274.226 447.791 274.58C448.14 274.929 448.312 275.366 448.312 275.799V335.908C448.312 338.002 447.614 339.84 446.218 341.325L446.129 341.413C445.78 341.934 445.78 342.371 446.041 342.897C446.218 343.418 446.655 343.595 447.265 343.595H466.661C467.187 343.595 467.536 343.418 467.796 342.897C468.056 342.371 468.056 341.934 467.796 341.413C466.312 339.84 465.614 338.09 465.614 335.996V275.799C465.614 275.366 465.786 274.929 466.135 274.58C466.484 274.226 466.838 274.054 467.359 274.054H479.416C481.515 274.054 483.26 274.84 484.744 276.236H484.833C485.27 276.585 485.708 276.585 486.228 276.325C486.754 276.153 487.015 275.715 487.015 275.101V255.705C487.015 255.184 486.754 254.835 486.228 254.569C485.708 254.309 485.27 254.309 484.833 254.569Z" fill="#FFC1B2" fill-opacity="0.502"/>
<path d="M563.545 270.382C560.227 266.017 556.295 262.694 551.925 260.335C547.472 258.064 542.841 256.84 537.946 256.84C533.055 256.84 528.336 258.064 523.883 260.335C519.425 262.694 515.581 266.017 512.263 270.382C509.118 274.491 506.758 279.121 505.185 284.189C503.524 289.257 502.737 294.673 502.737 300.262C502.737 305.855 503.524 311.272 505.185 316.34C506.758 321.491 509.118 326.033 512.263 330.053C515.581 334.423 519.425 337.829 523.883 340.1C528.336 342.46 533.055 343.595 537.946 343.595C542.841 343.595 547.472 342.46 551.925 340.1C556.295 337.829 560.227 334.423 563.545 330.053C566.69 326.033 569.05 321.491 570.711 316.34C572.279 311.272 573.154 305.855 573.154 300.262C573.154 294.673 572.279 289.257 570.711 284.189C569.05 279.121 566.69 274.491 563.545 270.382ZM537.946 326.298C535.503 326.298 533.144 325.6 531.045 324.199C528.862 322.803 526.94 320.97 525.368 318.611C523.706 316.251 522.399 313.454 521.435 310.309C520.477 307.163 520.039 303.845 520.039 300.262C520.039 296.767 520.477 293.361 521.435 290.215C522.399 287.069 523.706 284.361 525.368 281.918C526.94 279.559 528.862 277.637 531.045 276.236C533.144 274.84 535.503 274.142 537.946 274.142C540.394 274.142 542.664 274.84 544.847 276.236C546.946 277.637 548.868 279.559 550.44 281.918C552.013 284.361 553.326 287.069 554.284 290.215C555.248 293.361 555.769 296.767 555.769 300.262C555.769 303.845 555.248 307.163 554.284 310.309C553.326 313.454 552.013 316.251 550.44 318.611C548.868 320.97 546.946 322.803 544.847 324.199C542.664 325.6 540.394 326.298 537.946 326.298Z" fill="#FFC1B2" fill-opacity="0.502"/>
<path d="M649.859 341.413L648.546 340.361C647.15 339.226 645.926 337.83 644.968 336.257L634.135 318.96C633.786 318.434 633.609 317.825 633.786 317.121C633.958 316.512 634.307 315.986 634.921 315.554C637.103 313.981 639.025 312.231 640.598 310.22C642.958 307.34 644.791 304.017 646.015 300.351C647.239 296.679 647.937 292.835 647.937 288.819C647.937 284.799 647.239 280.866 646.015 277.2C644.791 273.528 642.958 270.21 640.598 267.241C637.801 263.918 634.395 261.299 630.551 259.465C626.619 257.715 622.338 256.757 617.796 256.757H590.187C589.577 256.757 589.14 257.017 588.968 257.543C588.702 258.064 588.791 258.502 589.228 258.939C590.624 260.512 591.411 262.345 591.411 264.444V336.08C591.411 338.09 590.713 339.84 589.406 341.325C588.88 341.851 588.791 342.283 589.051 342.809C589.228 343.335 589.666 343.595 590.364 343.595H609.932C610.458 343.595 610.895 343.418 611.067 342.897C611.244 342.371 611.244 341.934 610.895 341.413C609.411 339.84 608.713 338.09 608.713 335.996V323.241C608.713 322.538 608.885 321.929 609.411 321.403C609.932 320.882 610.546 320.616 611.244 320.616H613.343C614.213 320.616 614.999 321.054 615.525 321.84L626.27 339.142C626.708 339.924 626.619 340.627 626.098 341.325L626.01 341.413C625.661 341.934 625.661 342.371 625.921 342.897C626.098 343.418 626.531 343.595 627.145 343.595H649.249C649.859 343.595 650.208 343.335 650.385 342.809C650.557 342.283 650.385 341.851 649.859 341.413ZM627.234 299.215C625.046 302.012 621.9 303.319 617.796 303.319H611.244C610.546 303.319 609.932 303.147 609.411 302.621C608.885 302.095 608.713 301.486 608.713 300.788V276.674C608.713 275.976 608.885 275.366 609.411 274.84C609.932 274.314 610.546 274.054 611.244 274.054H617.796C620.942 274.054 623.301 274.752 625.046 276.153C626.796 277.549 628.02 279.121 628.89 280.866C629.676 282.616 630.202 284.272 630.374 285.845C630.551 287.418 630.64 288.47 630.64 288.819C630.64 290.913 630.291 292.835 629.765 294.585C629.156 296.33 628.281 297.903 627.234 299.215Z" fill="#FFC1B2" fill-opacity="0.502"/>
<path d="M732.764 278.246L732.327 277.72C731.103 276.502 730.322 275.101 729.795 273.528C728.223 268.637 724.988 264.616 720.275 261.47C717.65 259.814 714.681 258.502 711.363 257.627C708.04 256.757 704.634 256.319 700.962 256.319C697.295 256.319 693.712 256.84 690.306 257.715C686.9 258.59 683.842 259.903 681.134 261.559C677.462 263.83 674.754 266.538 672.832 269.772C670.91 273.007 670.035 276.502 670.035 280.345C670.035 287.684 673.447 293.97 680.436 299.127C682.879 301.049 685.499 302.621 688.384 304.017C691.269 305.418 694.238 306.814 697.207 308.038C698.957 308.913 700.879 309.783 702.801 310.658C704.723 311.533 706.467 312.491 708.04 313.366C709.613 314.33 710.926 315.288 711.973 316.252C713.019 317.299 713.545 318.262 713.545 319.22C713.545 320.444 713.108 321.58 712.233 322.455C711.363 323.325 710.228 324.111 708.915 324.637C707.603 325.163 706.207 325.601 704.634 325.861C703.061 326.21 701.665 326.299 700.264 326.299C698.519 326.299 696.769 326.121 694.848 325.684C692.926 325.335 691.269 324.637 689.957 323.679C689.608 323.413 689.348 323.064 689.348 322.627C689.259 322.189 689.348 321.84 689.697 321.491L689.78 321.403C690.045 320.97 690.045 320.533 689.868 320.007C689.608 319.481 689.17 319.22 688.644 319.22H669.337C668.728 319.22 668.29 319.481 668.113 320.007C667.853 320.533 667.853 320.97 668.202 321.403L668.551 321.757C669.775 323.153 670.561 324.637 671.087 326.121C672.66 331.189 675.806 335.21 680.697 338.267C683.316 340.012 686.374 341.325 689.697 342.2C693.014 343.158 696.598 343.595 700.264 343.595C704.634 343.595 708.738 342.986 712.499 341.762C716.254 340.538 719.488 338.877 722.197 336.694C724.905 334.595 726.999 331.976 728.572 329.007C730.056 326.033 730.842 322.804 730.842 319.22C730.842 315.465 729.967 312.142 728.311 309.351C726.65 306.554 724.551 304.106 721.931 302.012C719.311 299.913 716.514 298.168 713.368 296.595C710.228 295.022 707.165 293.621 704.197 292.226C702.186 291.351 700.181 290.476 698.17 289.517C696.16 288.642 694.327 287.684 692.754 286.632C691.181 285.674 689.868 284.627 688.822 283.575C687.775 282.528 687.337 281.481 687.337 280.345C687.337 279.382 687.686 278.507 688.561 277.637C689.348 276.762 690.394 276.064 691.702 275.45C692.926 274.929 694.41 274.491 696.072 274.142C697.644 273.793 699.306 273.616 700.962 273.616C702.884 273.616 704.811 273.877 706.556 274.226C708.301 274.663 709.702 275.278 710.926 276.064C711.275 276.325 711.535 276.674 711.535 277.111C711.535 277.549 711.447 277.897 711.186 278.158V278.246C710.837 278.772 710.837 279.21 711.098 279.642C711.275 280.168 711.712 280.345 712.322 280.345H731.629C732.155 280.345 732.592 280.168 732.853 279.642C733.03 279.21 733.03 278.772 732.764 278.246Z" fill="#FFC1B2" fill-opacity="0.502"/>
<path d="M318.184 300.805H307.789C305.778 300.805 304.033 300.196 302.638 298.795L302.283 298.446C301.763 298.186 301.325 298.186 300.799 298.363C300.278 298.623 300.101 299.061 300.101 299.581V318.977C300.101 319.503 300.278 319.941 300.799 320.201C301.325 320.462 301.763 320.462 302.283 320.113L303.247 319.154C303.945 318.456 304.82 318.102 305.867 318.102C305.955 318.102 306.044 318.191 306.044 318.368V325.18C306.044 325.795 305.778 326.316 305.429 326.665C305.08 327.102 304.559 327.279 303.945 327.279C299.226 327.279 295.299 326.404 292.236 324.571C289.179 322.821 286.736 320.55 284.986 317.842C283.242 315.222 281.929 312.337 281.231 309.368C280.533 306.399 280.184 303.602 280.184 301.154C280.184 297.66 280.705 294.342 281.757 291.196C282.804 288.05 284.377 285.253 286.299 282.811C290.492 277.743 296.434 275.123 303.945 275.123H312.684C314.606 275.123 316.351 275.821 317.835 277.045C318.184 277.482 318.622 277.566 319.148 277.394C319.674 277.217 319.934 276.779 319.934 276.17V256.602C319.934 256.076 319.674 255.639 319.236 255.378C318.71 255.201 318.273 255.201 317.835 255.467L317.486 255.816C316.002 257.123 314.257 257.738 312.33 257.738H303.945C297.57 257.738 291.804 258.962 286.559 261.316C281.32 263.764 276.861 267.259 273.018 271.8C269.7 275.732 267.164 280.191 265.419 285.253C263.669 290.321 262.882 295.566 262.882 301.154C262.882 306.571 263.757 311.904 265.507 317.055C267.252 322.3 269.789 326.93 273.283 330.946C276.773 335.055 281.054 338.373 286.122 340.821C291.19 343.352 297.132 344.576 303.945 344.576H318.184C319.585 344.576 320.809 344.139 321.856 343.092C322.815 342.128 323.341 340.904 323.341 339.42V305.962C323.341 304.566 322.815 303.425 321.856 302.378C320.809 301.331 319.585 300.805 318.184 300.805Z" fill="#442302"/>
<path d="M413.41 343.004C413.41 342.655 413.238 342.395 412.973 342.217C410.967 340.556 409.655 338.462 408.957 335.842L388.077 263.676C387.639 262.28 387.9 260.967 388.952 259.921C389.212 259.483 389.212 259.046 389.035 258.525C388.775 257.999 388.337 257.738 387.816 257.738H364.749C364.228 257.738 363.79 257.999 363.525 258.525C363.264 259.046 363.264 259.483 363.613 259.921C364.66 260.967 364.926 262.28 364.488 263.676L343.697 335.926C342.993 338.374 341.598 340.473 339.587 342.217C339.327 342.478 339.15 342.743 339.15 343.004C339.066 343.441 339.15 343.79 339.415 344.139C339.676 344.488 340.025 344.577 340.551 344.577H360.816C361.342 344.577 361.78 344.4 361.952 343.879C362.129 343.353 362.129 342.915 361.78 342.478C360.733 341.431 360.467 340.124 360.816 338.723L363.525 329.639C363.79 328.676 364.311 327.889 365.098 327.368C365.795 326.842 366.67 326.493 367.723 326.493H384.931C385.889 326.493 386.764 326.842 387.551 327.368C388.249 327.889 388.775 328.676 389.124 329.639L391.743 338.723C392.092 340.124 391.743 341.342 390.874 342.395V342.478C390.525 343.004 390.525 343.441 390.785 343.879C390.957 344.4 391.394 344.577 392.009 344.577H412.103C412.54 344.577 412.889 344.488 413.15 344.139C413.41 343.79 413.499 343.441 413.41 343.004ZM381.962 309.197H370.691C370.342 309.197 370.077 309.108 369.905 308.842C369.644 308.582 369.556 308.233 369.728 307.884L375.41 288.4C375.493 287.962 375.759 287.702 376.28 287.702C376.806 287.702 377.066 287.962 377.243 288.4L382.832 307.884C382.92 308.233 382.832 308.582 382.66 308.842C382.483 309.108 382.223 309.197 381.962 309.197Z" fill="#442302"/>
<path d="M487.145 255.551L487.056 255.639C485.483 257.04 483.738 257.738 481.728 257.738H436.822C434.728 257.738 432.978 257.04 431.405 255.639V255.551C430.884 255.29 430.447 255.29 429.921 255.551C429.395 255.816 429.223 256.165 429.223 256.686V276.082C429.223 276.697 429.395 277.134 429.921 277.306C430.447 277.566 430.884 277.566 431.405 277.217C432.978 275.822 434.728 275.035 436.822 275.035H448.879C449.316 275.035 449.754 275.207 450.103 275.561C450.452 275.91 450.624 276.348 450.624 276.78V336.889C450.624 338.983 449.926 340.822 448.53 342.306L448.441 342.395C448.092 342.915 448.092 343.353 448.353 343.879C448.53 344.4 448.967 344.577 449.577 344.577H468.973C469.499 344.577 469.848 344.4 470.108 343.879C470.368 343.353 470.368 342.915 470.108 342.395C468.624 340.822 467.926 339.072 467.926 336.978V276.78C467.926 276.348 468.098 275.91 468.447 275.561C468.796 275.207 469.15 275.035 469.671 275.035H481.728C483.827 275.035 485.572 275.822 487.056 277.217H487.145C487.582 277.566 488.02 277.566 488.54 277.306C489.066 277.134 489.327 276.697 489.327 276.082V256.686C489.327 256.165 489.066 255.816 488.54 255.551C488.02 255.29 487.582 255.29 487.145 255.551Z" fill="#442302"/>
<path d="M565.857 271.363C562.539 266.998 558.607 263.675 554.237 261.316C549.784 259.045 545.154 257.821 540.258 257.821C535.368 257.821 530.649 259.045 526.196 261.316C521.737 263.675 517.894 266.998 514.576 271.363C511.43 275.472 509.071 280.103 507.498 285.17C505.836 290.238 505.05 295.655 505.05 301.243C505.05 306.837 505.836 312.254 507.498 317.321C509.071 322.472 511.43 327.014 514.576 331.035C517.894 335.405 521.737 338.811 526.196 341.082C530.649 343.441 535.368 344.576 540.258 344.576C545.154 344.576 549.784 343.441 554.237 341.082C558.607 338.811 562.539 335.405 565.857 331.035C569.003 327.014 571.362 322.472 573.024 317.321C574.591 312.254 575.466 306.837 575.466 301.243C575.466 295.655 574.591 290.238 573.024 285.17C571.362 280.103 569.003 275.472 565.857 271.363ZM540.258 327.28C537.815 327.28 535.456 326.582 533.357 325.181C531.175 323.785 529.253 321.951 527.68 319.592C526.019 317.233 524.711 314.436 523.748 311.29C522.789 308.144 522.352 304.826 522.352 301.243C522.352 297.748 522.789 294.342 523.748 291.196C524.711 288.05 526.019 285.342 527.68 282.899C529.253 280.54 531.175 278.618 533.357 277.217C535.456 275.821 537.815 275.123 540.258 275.123C542.706 275.123 544.977 275.821 547.159 277.217C549.258 278.618 551.18 280.54 552.753 282.899C554.326 285.342 555.638 288.05 556.597 291.196C557.56 294.342 558.081 297.748 558.081 301.243C558.081 304.826 557.56 308.144 556.597 311.29C555.638 314.436 554.326 317.233 552.753 319.592C551.18 321.951 549.258 323.785 547.159 325.181C544.977 326.582 542.706 327.28 540.258 327.28Z" fill="#442302"/>
<path d="M652.171 342.395L650.858 341.342C649.462 340.207 648.238 338.811 647.28 337.238L636.447 319.941C636.098 319.415 635.921 318.806 636.098 318.103C636.27 317.493 636.619 316.967 637.233 316.535C639.415 314.962 641.337 313.212 642.91 311.202C645.27 308.322 647.103 304.999 648.327 301.332C649.551 297.66 650.249 293.816 650.249 289.801C650.249 285.78 649.551 281.848 648.327 278.181C647.103 274.509 645.27 271.191 642.91 268.223C640.113 264.9 636.707 262.28 632.863 260.447C628.931 258.697 624.65 257.738 620.108 257.738H592.499C591.889 257.738 591.452 257.999 591.28 258.525C591.014 259.046 591.103 259.483 591.54 259.921C592.936 261.493 593.723 263.327 593.723 265.426V337.061C593.723 339.072 593.025 340.822 591.718 342.306C591.192 342.832 591.103 343.264 591.363 343.79C591.54 344.316 591.978 344.577 592.676 344.577H612.244C612.77 344.577 613.207 344.4 613.379 343.879C613.556 343.353 613.556 342.915 613.207 342.395C611.723 340.822 611.025 339.072 611.025 336.978V324.223C611.025 323.52 611.197 322.91 611.723 322.384C612.244 321.863 612.858 321.598 613.556 321.598H615.655C616.525 321.598 617.311 322.035 617.837 322.822L628.582 340.124C629.02 340.905 628.931 341.608 628.41 342.306L628.322 342.395C627.973 342.915 627.973 343.353 628.233 343.879C628.41 344.4 628.843 344.577 629.457 344.577H651.561C652.171 344.577 652.52 344.316 652.697 343.79C652.869 343.264 652.697 342.832 652.171 342.395ZM629.546 300.197C627.358 302.993 624.212 304.301 620.108 304.301H613.556C612.858 304.301 612.244 304.129 611.723 303.603C611.197 303.077 611.025 302.467 611.025 301.77V277.655C611.025 276.957 611.197 276.348 611.723 275.822C612.244 275.296 612.858 275.035 613.556 275.035H620.108C623.254 275.035 625.613 275.733 627.358 277.134C629.108 278.53 630.332 280.103 631.202 281.848C631.988 283.598 632.514 285.254 632.686 286.827C632.863 288.4 632.952 289.452 632.952 289.801C632.952 291.895 632.603 293.816 632.077 295.566C631.468 297.311 630.593 298.884 629.546 300.197Z" fill="#442302"/>
<path d="M735.077 279.228L734.639 278.702C733.415 277.483 732.634 276.082 732.108 274.509C730.535 269.618 727.301 265.598 722.587 262.452C719.962 260.796 716.993 259.483 713.676 258.608C710.353 257.738 706.947 257.301 703.275 257.301C699.608 257.301 696.025 257.822 692.618 258.697C689.212 259.572 686.155 260.884 683.447 262.54C679.775 264.811 677.066 267.52 675.144 270.754C673.223 273.988 672.348 277.483 672.348 281.327C672.348 288.665 675.759 294.952 682.749 300.108C685.191 302.03 687.811 303.603 690.697 304.999C693.582 306.4 696.551 307.796 699.519 309.02C701.269 309.895 703.191 310.764 705.113 311.639C707.035 312.514 708.78 313.473 710.353 314.348C711.926 315.311 713.238 316.27 714.285 317.233C715.332 318.28 715.858 319.243 715.858 320.202C715.858 321.426 715.42 322.561 714.545 323.436C713.676 324.306 712.54 325.092 711.228 325.618C709.915 326.145 708.519 326.582 706.947 326.842C705.374 327.191 703.978 327.28 702.577 327.28C700.832 327.28 699.082 327.103 697.16 326.665C695.238 326.316 693.582 325.618 692.269 324.66C691.92 324.395 691.66 324.046 691.66 323.608C691.572 323.171 691.66 322.822 692.009 322.473L692.092 322.384C692.358 321.952 692.358 321.514 692.181 320.988C691.92 320.462 691.483 320.202 690.957 320.202H671.65C671.04 320.202 670.603 320.462 670.426 320.988C670.165 321.514 670.165 321.952 670.514 322.384L670.863 322.738C672.087 324.134 672.874 325.618 673.4 327.103C674.973 332.171 678.118 336.191 683.009 339.249C685.629 340.993 688.686 342.306 692.009 343.181C695.327 344.139 698.91 344.577 702.577 344.577C706.947 344.577 711.051 343.967 714.811 342.743C718.566 341.52 721.801 339.858 724.509 337.676C727.217 335.577 729.311 332.957 730.884 329.988C732.368 327.014 733.155 323.785 733.155 320.202C733.155 316.447 732.28 313.124 730.624 310.332C728.962 307.535 726.863 305.087 724.243 302.993C721.624 300.895 718.827 299.15 715.681 297.577C712.54 296.004 709.478 294.603 706.509 293.207C704.499 292.332 702.493 291.457 700.483 290.499C698.473 289.624 696.639 288.665 695.066 287.613C693.493 286.655 692.181 285.608 691.134 284.556C690.087 283.509 689.65 282.462 689.65 281.327C689.65 280.363 689.999 279.488 690.874 278.618C691.66 277.743 692.707 277.046 694.014 276.431C695.238 275.91 696.723 275.473 698.384 275.124C699.957 274.775 701.618 274.598 703.275 274.598C705.197 274.598 707.124 274.858 708.868 275.207C710.613 275.645 712.014 276.259 713.238 277.046C713.587 277.306 713.848 277.655 713.848 278.092C713.848 278.53 713.759 278.879 713.499 279.139V279.228C713.15 279.754 713.15 280.191 713.41 280.624C713.587 281.15 714.025 281.327 714.634 281.327H733.941C734.467 281.327 734.905 281.15 735.165 280.624C735.342 280.191 735.342 279.754 735.077 279.228Z" fill="#442302"/>
</svg>
